<svg width="24" height="30" viewBox="0 0 24 30" fill="none" xmlns="http://www.w3.org/2000/svg">
<path d="M24 5.57398L19.1832 0.599976H9.6C8.64522 0.599976 7.72955 0.97926 7.05442 1.65439C6.37929 2.32952 6 3.2452 6 4.19998V5.39998H3.6C2.64522 5.39998 1.72955 5.77926 1.05442 6.45439C0.379285 7.12952 0 8.0452 0 8.99998V29.4H19.2V23.4H24V5.57398ZM16.8 27H2.4V8.99998C2.4 8.68172 2.52643 8.37649 2.75147 8.15145C2.97652 7.9264 3.28174 7.79997 3.6 7.79998H6V23.4H16.8V27ZM8.4 21V4.19998C8.4 3.88172 8.52643 3.57649 8.75148 3.35145C8.97652 3.1264 9.28174 2.99998 9.6 2.99998H16.8V7.79998H21.6V21H8.4Z" fill="#262626"/>
</svg>
