<svg width="32" height="32" viewBox="0 0 32 32" fill="none" xmlns="http://www.w3.org/2000/svg">
<path d="M6.85382e-08 29.3334H32V32H6.85382e-08V29.3334ZM32 10.5453V13.3333H28V24H30.6667V26.6667H1.33333V24H4V13.3333H6.85382e-08V10.5453C-0.000132939 9.82673 0.193327 9.12135 0.560043 8.50335C0.92676 7.88535 1.45319 7.37756 2.084 7.03334L14.084 0.487999C14.6714 0.166478 15.3303 -0.00204468 16 -0.00204468C16.6697 -0.00204468 17.3286 0.166478 17.916 0.487999L29.916 7.03334C30.5468 7.37756 31.0732 7.88535 31.4399 8.50335C31.8067 9.12135 32.0001 9.82673 32 10.5453ZM6.66666 24H10.6667V13.3333H6.66666V24ZM13.3333 13.3333V24H18.6667V13.3333H13.3333ZM25.3333 13.3333H21.3333V24H25.3333V13.3333ZM29.3333 10.5453C29.3334 10.3058 29.2689 10.0707 29.1466 9.86468C29.0244 9.65868 28.8489 9.48941 28.6387 9.37467L16.6387 2.82933C16.4428 2.72244 16.2232 2.66642 16 2.66642C15.7768 2.66642 15.5572 2.72244 15.3613 2.82933L3.36133 9.37467C3.15106 9.48941 2.97559 9.65868 2.85335 9.86468C2.73111 10.0707 2.66662 10.3058 2.66667 10.5453V10.6667H29.3333V10.5453Z" fill="#F0B90B"/>
</svg>
