<svg width="32" height="32" viewBox="0 0 32 32" fill="none" xmlns="http://www.w3.org/2000/svg">
<g clip-path="url(#clip0_696_628)">
<path d="M12 16C13.5822 16 15.129 15.5308 16.4446 14.6518C17.7601 13.7727 18.7855 12.5233 19.391 11.0615C19.9965 9.59966 20.155 7.99113 19.8463 6.43928C19.5376 4.88743 18.7757 3.46197 17.6568 2.34315C16.538 1.22433 15.1126 0.462403 13.5607 0.153721C12.0089 -0.15496 10.4003 0.00346629 8.93853 0.608967C7.47672 1.21447 6.22729 2.23985 5.34824 3.55544C4.46919 4.87103 4 6.41775 4 8C4.00212 10.1211 4.84565 12.1547 6.34548 13.6545C7.84532 15.1543 9.87892 15.9979 12 16ZM12 2.66667C13.0548 2.66667 14.086 2.97946 14.963 3.5655C15.8401 4.15153 16.5237 4.98449 16.9274 5.95902C17.331 6.93356 17.4366 8.00592 17.2309 9.04048C17.0251 10.075 16.5171 11.0254 15.7712 11.7712C15.0254 12.5171 14.075 13.0251 13.0405 13.2309C12.0059 13.4366 10.9336 13.331 9.95902 12.9274C8.98448 12.5237 8.15153 11.8401 7.56549 10.963C6.97946 10.086 6.66667 9.05484 6.66667 8C6.66667 6.58551 7.22857 5.22896 8.22876 4.22877C9.22896 3.22857 10.5855 2.66667 12 2.66667Z" fill="#F0B90B"/>
<path d="M28.0002 13.3333V9.33331H25.3335V13.3333H21.3335V16H25.3335V20H28.0002V16H32.0002V13.3333H28.0002Z" fill="#F0B90B"/>
<path d="M17.3907 18.6667H6.60933C4.85708 18.6688 3.1772 19.3658 1.93817 20.6049C0.699135 21.8439 0.0021171 23.5238 0 25.276L0 32H2.66667V25.276C2.66772 24.2307 3.08345 23.2285 3.82262 22.4893C4.56178 21.7501 5.564 21.3344 6.60933 21.3334H17.3907C18.436 21.3344 19.4382 21.7501 20.1774 22.4893C20.9165 23.2285 21.3323 24.2307 21.3333 25.276V32H24V25.276C23.9979 23.5238 23.3009 21.8439 22.0618 20.6049C20.8228 19.3658 19.1429 18.6688 17.3907 18.6667Z" fill="#F0B90B"/>
</g>
<defs>
<clipPath id="clip0_696_628">
<rect width="32" height="32" fill="white"/>
</clipPath>
</defs>
</svg>
