<svg width="48" height="48" viewBox="0 0 48 48" fill="#ffffff" xmlns="http://www.w3.org/2000/svg">
<path d="M33.6354 17.0045L21.4636 26.9536L20.8908 27.4227C20.765 27.5224 20.6829 27.6672 20.6617 27.8263L20.5336 28.8845L20.1817 31.8572C20.185 31.8934 20.1737 31.9294 20.1505 31.9572C20.1272 31.9851 20.0938 32.0026 20.0576 32.0059C20.0215 32.0091 19.9855 31.9979 19.9576 31.9746C19.9298 31.9513 19.9123 31.9179 19.909 31.8818L18.919 28.909L17.8963 25.8681C17.8527 25.7319 17.8582 25.5846 17.9121 25.452C17.9659 25.3194 18.0645 25.21 18.1908 25.1427L30.8563 17.8827L33.2399 16.519C33.5863 16.3172 33.9408 16.7536 33.6354 17.0045Z" fill="#262626"/>
<path d="M41.4545 0H6.54545C4.80949 0 3.14463 0.689608 1.91712 1.91712C0.689608 3.14463 0 4.80949 0 6.54545L0 41.4545C0 43.1905 0.689608 44.8554 1.91712 46.0829C3.14463 47.3104 4.80949 48 6.54545 48H41.4545C43.1905 48 44.8554 47.3104 46.0829 46.0829C47.3104 44.8554 48 43.1905 48 41.4545V6.54545C48 4.80949 47.3104 3.14463 46.0829 1.91712C44.8554 0.689608 43.1905 0 41.4545 0V0ZM38.97 13.8927L34.2845 34.5955C34.0636 35.5664 32.8309 36.0055 31.9664 35.4136L24.8918 30.6136L21.2891 34.02C21.1422 34.1578 20.9639 34.2578 20.7696 34.3111C20.5753 34.3644 20.371 34.3695 20.1743 34.326C19.9776 34.2825 19.7945 34.1916 19.6409 34.0613C19.4873 33.931 19.3677 33.7651 19.2927 33.5782L17.9918 29.76L16.6909 25.9418L9.71727 24.0327C9.52229 23.9902 9.34683 23.8844 9.21818 23.7318C9.08953 23.5792 9.0149 23.3884 9.00588 23.189C8.99686 22.9897 9.05396 22.7929 9.16831 22.6293C9.28265 22.4658 9.44784 22.3445 9.63818 22.2845L36.5782 12.5782L37.0745 12.4009C38.1191 12.0355 39.1991 12.8809 38.97 13.8927Z" fill="#f0b90b"/>
</svg>
