<svg width="48" height="48" viewBox="0 0 48 48" fill="none" xmlns="http://www.w3.org/2000/svg">
<path d="M41.4545 0H6.54545C4.80949 0 3.14463 0.689608 1.91712 1.91712C0.689608 3.14463 0 4.80949 0 6.54545L0 41.4545C0 43.1905 0.689608 44.8554 1.91712 46.0829C3.14463 47.3104 4.80949 48 6.54545 48H41.4545C43.1905 48 44.8554 47.3104 46.0829 46.0829C47.3104 44.8554 48 43.1905 48 41.4545V6.54545C48 4.80949 47.3104 3.14463 46.0829 1.91712C44.8554 0.689608 43.1905 0 41.4545 0V0ZM38.9427 14.9209C38.2307 15.9846 37.3639 16.936 36.3709 17.7436C36.2425 17.847 36.1389 17.9778 36.0676 18.1265C35.9964 18.2752 35.9593 18.4379 35.9591 18.6027V18.7009C35.948 20.8443 35.5546 22.9685 34.7973 24.9736C34.0174 27.0754 32.8592 29.0165 31.38 30.7009C29.8333 32.4669 27.9345 33.8901 25.8055 34.8791C25.2179 35.1455 24.615 35.3768 24 35.5718C22.1206 36.1817 20.1558 36.4874 18.18 36.4773C15.0509 36.474 11.9781 35.6442 9.27273 34.0718C9.17585 34.0168 9.09968 33.9315 9.05585 33.8291C9.01201 33.7266 9.00294 33.6126 9.03 33.5045C9.05743 33.3977 9.11988 33.3031 9.20738 33.2358C9.29488 33.1686 9.40239 33.1326 9.51273 33.1336H10.26C12.6415 33.1388 14.9702 32.4322 16.9473 31.1045C15.7685 30.9128 14.6655 30.3997 13.7595 29.6216C12.8534 28.8436 12.1795 27.8308 11.8118 26.6945C11.7938 26.6387 11.7905 26.5792 11.8025 26.5217C11.8144 26.4643 11.8411 26.4109 11.8799 26.3669C11.9187 26.3229 11.9682 26.2897 12.0237 26.2706C12.0792 26.2516 12.1387 26.2473 12.1964 26.2582C12.556 26.3266 12.9212 26.3613 13.2873 26.3618H13.4236C12.2847 25.8385 11.3219 24.9964 10.6515 23.9374C9.98117 22.8784 9.63204 21.6478 9.64636 20.3945C9.64682 20.3357 9.66263 20.2779 9.69225 20.227C9.72187 20.1762 9.76425 20.1339 9.81522 20.1044C9.86619 20.0749 9.92396 20.0593 9.98284 20.059C10.0417 20.0587 10.0997 20.0738 10.1509 20.1027C10.6131 20.3598 11.1088 20.5516 11.6236 20.6727C10.6038 19.6645 9.94738 18.3462 9.75735 16.9248C9.56733 15.5033 9.85443 14.0589 10.5736 12.8182C10.6015 12.7726 10.6397 12.7343 10.6851 12.7064C10.7306 12.6784 10.782 12.6617 10.8352 12.6574C10.8884 12.6531 10.9419 12.6615 10.9912 12.6819C11.0406 12.7023 11.0844 12.734 11.1191 12.7745C12.5475 14.54 14.3161 16.0004 16.3199 17.0691C18.3237 18.1377 20.5218 18.7928 22.7836 18.9955H22.8082C22.8418 18.995 22.875 18.9875 22.9055 18.9734C22.9361 18.9593 22.9633 18.9389 22.9855 18.9136C23.007 18.8892 23.0232 18.8606 23.033 18.8297C23.0429 18.7987 23.0462 18.766 23.0427 18.7336C22.9579 17.9407 23.0095 17.1391 23.1955 16.3636C23.3583 15.6856 23.635 15.0401 24.0136 14.4545C24.8089 13.2055 26.0204 12.2781 27.4336 11.8364C28.0966 11.6285 28.7871 11.5219 29.4818 11.52C31.0573 11.5184 32.5791 12.0926 33.7609 13.1345C33.9115 13.2684 34.105 13.3438 34.3064 13.3473C34.3727 13.3462 34.4386 13.337 34.5027 13.32C35.6132 13.0386 36.6776 12.5996 37.6636 12.0164C37.7226 11.9809 37.7909 11.9643 37.8595 11.9687C37.9281 11.9731 37.9938 11.9984 38.0477 12.041C38.1016 12.0837 38.1412 12.1418 38.1613 12.2075C38.1814 12.2733 38.1809 12.3436 38.16 12.4091C37.8302 13.4417 37.2448 14.3742 36.4582 15.12C37.1674 14.9519 37.8595 14.7182 38.5255 14.4218C38.5926 14.3919 38.6678 14.3847 38.7394 14.4013C38.8111 14.4179 38.8754 14.4574 38.9225 14.5138C38.9697 14.5702 38.9972 14.6405 39.0009 14.714C39.0045 14.7874 38.9841 14.8601 38.9427 14.9209Z" fill="#f0b90b"/>
</svg>
