<svg width="48" height="48" viewBox="0 0 48 48" fill="none" xmlns="http://www.w3.org/2000/svg">
<path d="M41.4545 0H6.54545C4.80949 0 3.14463 0.689608 1.91712 1.91712C0.689608 3.14463 0 4.80949 0 6.54545L0 41.4545C0 43.1905 0.689608 44.8554 1.91712 46.0829C3.14463 47.3104 4.80949 48 6.54545 48H41.4545C43.1905 48 44.8554 47.3104 46.0829 46.0829C47.3104 44.8554 48 43.1905 48 41.4545V6.54545C48 4.80949 47.3104 3.14463 46.0829 1.91712C44.8554 0.689608 43.1905 0 41.4545 0V0ZM33.3627 24.9273L15.2727 33.5455C15.1623 33.5998 15.0398 33.625 14.9169 33.6188C14.7939 33.6125 14.6746 33.575 14.5703 33.5097C14.4659 33.4444 14.38 33.3535 14.3206 33.2457C14.2612 33.1379 14.2303 33.0167 14.2309 32.8936V15.1009C14.2327 14.9788 14.2652 14.8592 14.3253 14.7529C14.3855 14.6467 14.4714 14.5573 14.5751 14.4929C14.6789 14.4286 14.7971 14.3913 14.919 14.3846C15.0409 14.3779 15.1626 14.4019 15.2727 14.4545L33.3736 23.6291C33.4929 23.691 33.5928 23.7847 33.6621 23.8999C33.7314 24.015 33.7675 24.1471 33.7663 24.2815C33.7652 24.4159 33.7269 24.5474 33.6557 24.6614C33.5844 24.7753 33.483 24.8674 33.3627 24.9273Z" fill="#f0b90b"/>
</svg>
